<?xml version="1.0"?>
<svg xmlns="http://www.w3.org/2000/svg" xmlns:xlink="http://www.w3.org/1999/xlink" xmlns:svgjs="http://svgjs.com/svgjs" version="1.1" width="512" height="512" x="0" y="0" viewBox="0 0 512 512" style="enable-background:new 0 0 512 512" xml:space="preserve"><g><path xmlns="http://www.w3.org/2000/svg" d="m496 128h-480c-8.832 0-16 7.168-16 16v352c0 8.832 7.168 16 16 16h480c8.832 0 16-7.168 16-16v-352c0-8.832-7.168-16-16-16zm-160 158.016c-8.832 0-16-7.168-16-16 0-21.376-17.504-33.6-32-40.032v170.016c0 26.912-28.096 48-64 48s-64-21.088-64-48 28.096-48 64-48c11.808 0 22.592 2.464 32 6.464v-150.464c0-4.768 2.112-9.28 5.792-12.32s8.512-4.256 13.184-3.392c26.656 4.992 77.024 27.68 77.024 77.728 0 8.832-7.168 16-16 16z" fill="#aaaaaa" data-original="#000000" style=""/><path xmlns="http://www.w3.org/2000/svg" d="m448 80c0-8.832-7.168-16-16-16h-352c-8.832 0-16 7.168-16 16v16h384z" fill="#aaaaaa" data-original="#000000" style=""/><path xmlns="http://www.w3.org/2000/svg" d="m384 16c0-8.832-7.168-16-16-16h-224c-8.832 0-16 7.168-16 16v16h256z" fill="#aaaaaa" data-original="#000000" style=""/><g xmlns="http://www.w3.org/2000/svg"/><g xmlns="http://www.w3.org/2000/svg"/><g xmlns="http://www.w3.org/2000/svg"/><g xmlns="http://www.w3.org/2000/svg"/><g xmlns="http://www.w3.org/2000/svg"/><g xmlns="http://www.w3.org/2000/svg"/><g xmlns="http://www.w3.org/2000/svg"/><g xmlns="http://www.w3.org/2000/svg"/><g xmlns="http://www.w3.org/2000/svg"/><g xmlns="http://www.w3.org/2000/svg"/><g xmlns="http://www.w3.org/2000/svg"/><g xmlns="http://www.w3.org/2000/svg"/><g xmlns="http://www.w3.org/2000/svg"/><g xmlns="http://www.w3.org/2000/svg"/><g xmlns="http://www.w3.org/2000/svg"/></g></svg>
