<?xml version="1.0" encoding="utf-8"?>
<!-- Generator: Adobe Illustrator 23.0.2, SVG Export Plug-In . SVG Version: 6.00 Build 0)  -->
<svg version="1.1" id="Layer_1" xmlns="http://www.w3.org/2000/svg" xmlns:xlink="http://www.w3.org/1999/xlink" x="0px" y="0px"
	 viewBox="0 0 357 305" style="enable-background:new 0 0 357 305;" xml:space="preserve">
<style type="text/css">
	.st0{fill:#F1F1F1;}
	.st1{fill:#F0232D;}
	.st2{fill:#FF8080;}
</style>
<g>
	<path class="st0" d="M-2.8,506.4v36h50.1v-36c0-5.1,1.1-9,3.2-11.6c2.1-2.6,4.9-3.9,8.3-3.9c3.5,0,6.3,1.3,8.5,3.8
		c2.2,2.5,3.2,6.4,3.2,11.6v99c0,5.2-1.1,9.1-3.3,11.7s-5,3.9-8.4,3.9c-3.5,0-6.3-1.3-8.4-3.9c-2.1-2.6-3.1-6.5-3.1-11.6v-42.3H-2.8
		v42.3c0,5.2-1.1,9.1-3.3,11.7s-5,3.9-8.4,3.9c-3.5,0-6.3-1.3-8.4-3.9c-2.1-2.6-3.1-6.5-3.1-11.6v-99c0-5.1,1-9,3.1-11.6
		c2.1-2.6,4.9-3.9,8.4-3.9c3.5,0,6.3,1.3,8.5,3.8C-3.9,497.4-2.8,501.2-2.8,506.4z"/>
	<path class="st0" d="M153.4,579.2h-41.7c0.1,5.3,1,10,2.9,14.1c1.9,4.1,4.4,7.1,7.6,9.2c3.1,2.1,6.6,3.1,10.4,3.1
		c2.6,0,4.9-0.3,7-1c2.1-0.7,4.2-1.7,6.1-3.1c2-1.4,3.8-2.9,5.5-4.5c1.7-1.6,3.8-3.8,6.5-6.5c1.1-1,2.7-1.5,4.7-1.5
		c2.2,0,4,0.7,5.3,2c1.4,1.3,2,3.2,2,5.6c0,2.1-0.8,4.6-2.3,7.4c-1.5,2.8-3.8,5.5-6.8,8.1c-3,2.6-6.9,4.8-11.5,6.5
		s-9.9,2.6-15.9,2.6c-13.7,0-24.3-4.3-31.9-12.9c-7.6-8.6-11.4-20.2-11.4-34.9c0-6.9,0.9-13.3,2.8-19.3c1.9-5.9,4.6-11,8.2-15.2
		c3.6-4.2,8-7.5,13.3-9.7c5.3-2.3,11.1-3.4,17.5-3.4c8.3,0,15.5,1.9,21.4,5.8c6,3.9,10.4,8.8,13.4,15c3,6.1,4.5,12.3,4.5,18.7
		c0,5.9-1.5,9.7-4.6,11.4C163.3,578.3,159,579.2,153.4,579.2z M111.7,565.9h38.7c-0.5-8-2.5-14-5.9-18c-3.4-4-7.9-6-13.5-6
		c-5.3,0-9.7,2-13.1,6C114.5,552,112.4,558,111.7,565.9z"/>
	<path class="st0" d="M242.8,607.8c-5.2,4.4-10.1,7.7-15,9.9c-4.8,2.2-10.2,3.3-16.2,3.3c-5.5,0-10.3-1.2-14.4-3.6s-7.3-5.6-9.6-9.6
		c-2.2-4.1-3.4-8.5-3.4-13.2c0-6.4,1.8-11.9,5.5-16.4c3.7-4.5,8.8-7.5,15.2-9.1c1.4-0.3,4.7-1.1,10.1-2.3c5.4-1.2,10-2.3,13.8-3.3
		c3.8-1,8-2.2,12.5-3.6c-0.3-6.2-1.4-10.7-3.4-13.6c-2-2.9-6.2-4.3-12.5-4.3c-5.4,0-9.5,0.8-12.2,2.5c-2.7,1.7-5.1,4.1-7,7.5
		c-2,3.3-3.3,5.5-4.1,6.6c-0.8,1.1-2.5,1.6-5.2,1.6c-2.4,0-4.5-0.8-6.2-2.5c-1.7-1.7-2.6-3.8-2.6-6.5c0-4.1,1.3-8.1,4-12
		c2.7-3.9,6.8-7.1,12.4-9.6c5.6-2.5,12.6-3.8,21-3.8c9.4,0,16.7,1.2,22.1,3.6c5.4,2.4,9.1,6.3,11.4,11.5c2.2,5.3,3.3,12.2,3.3,20.9
		c0,5.5,0,10.1,0,14c0,3.8-0.1,8.1-0.1,12.8c0,4.4,0.7,9,2,13.8c1.3,4.8,2,7.8,2,9.2c0,2.4-1,4.6-3.1,6.6c-2.1,2-4.4,3-7,3
		c-2.2,0-4.3-1.1-6.5-3.4C247.5,615.4,245.2,612.1,242.8,607.8z M241.4,573.9c-3.1,1.3-7.7,2.6-13.6,4c-6,1.4-10.1,2.4-12.4,3.1
		c-2.3,0.7-4.5,1.9-6.6,3.9c-2.1,1.9-3.1,4.6-3.1,8c0,3.5,1.2,6.6,3.7,9c2.4,2.5,5.6,3.7,9.6,3.7c4.2,0,8.1-1,11.7-3
		c3.6-2,6.2-4.6,7.8-7.8c1.9-3.5,2.9-9.4,2.9-17.5V573.9z"/>
	<path class="st0" d="M305.1,587.2v19.6c0,4.7-1,8.3-3,10.7c-2,2.4-4.6,3.6-7.7,3.6c-3.1,0-5.6-1.2-7.6-3.6c-2-2.4-3-5.9-3-10.6
		v-65.2c0-10.5,3.5-15.8,10.4-15.8c3.5,0,6.1,1.2,7.7,3.7c1.6,2.5,2.4,6.1,2.6,10.9c2.5-4.8,5.2-8.4,7.8-10.9
		c2.7-2.5,6.3-3.7,10.7-3.7c4.5,0,8.8,1.2,13,3.7c4.2,2.5,6.3,5.7,6.3,9.8c0,2.9-0.9,5.2-2.7,7.1c-1.8,1.9-3.7,2.8-5.8,2.8
		c-0.8,0-2.7-0.5-5.7-1.6c-3-1.1-5.6-1.6-7.9-1.6c-3.1,0-5.7,0.9-7.7,2.7c-2,1.8-3.5,4.5-4.6,8c-1.1,3.5-1.8,7.8-2.3,12.6
		C305.3,574.2,305.1,580.2,305.1,587.2z"/>
	<path class="st0" d="M357.1,527.9h2.3v-14.1c0-3.8,0.1-6.7,0.3-8.9c0.2-2.1,0.7-4,1.5-5.5c0.8-1.6,2-2.9,3.6-3.9
		c1.6-1,3.3-1.5,5.2-1.5c2.7,0,5.2,1.1,7.3,3.3c1.5,1.5,2.4,3.3,2.8,5.4s0.6,5.2,0.6,9.1v15.9h7.8c3,0,5.3,0.8,6.9,2.4
		c1.6,1.6,2.4,3.6,2.4,6c0,3.1-1.1,5.3-3.4,6.6c-2.3,1.3-5.5,1.9-9.7,1.9h-4v43c0,3.7,0.1,6.5,0.4,8.4s0.9,3.6,1.9,4.8
		c1,1.2,2.7,1.8,5,1.8c1.2,0,2.9-0.2,5.1-0.7c2.1-0.5,3.8-0.7,5-0.7c1.7,0,3.3,0.8,4.6,2.3c1.4,1.5,2.1,3.4,2.1,5.6
		c0,3.8-1.9,6.7-5.6,8.7c-3.7,2-9.1,3-16.2,3c-6.7,0-11.7-1.2-15.2-3.7c-3.4-2.5-5.7-5.9-6.8-10.2c-1.1-4.3-1.6-10.1-1.6-17.4v-44.9
		h-2.8c-3.1,0-5.4-0.8-7-2.4c-1.6-1.6-2.4-3.6-2.4-6.1c0-2.5,0.8-4.5,2.5-6C351.4,528.7,353.9,527.9,357.1,527.9z"/>
	<path class="st0" d="M462.9,618.9h-35c-5.1,0-8.7-1.2-10.8-3.7c-2.2-2.5-3.2-6.4-3.2-11.9v-94.5c0-5.5,1.1-9.5,3.3-12
		c2.2-2.4,5.8-3.6,10.7-3.6h37.1c5.5,0,10.2,0.4,14.2,1.1c4,0.7,7.6,2.2,10.8,4.3c2.7,1.8,5.1,4,7.2,6.7c2.1,2.7,3.7,5.7,4.8,9
		c1.1,3.3,1.6,6.8,1.6,10.4c0,12.6-5.7,21.8-17.2,27.6c15,5.3,22.6,15.5,22.6,30.7c0,7-1.6,13.4-4.9,19c-3.3,5.6-7.7,9.8-13.3,12.5
		c-3.5,1.6-7.5,2.7-12,3.4C474.3,618.5,469,618.9,462.9,618.9z M437.1,512.3v32.5h21.2c5.8,0,10.2-0.6,13.4-1.8
		c3.1-1.2,5.6-3.5,7.2-6.9c1.3-2.4,2-5.1,2-8.1c0-6.3-2.1-10.6-6.2-12.6c-4.1-2.1-10.4-3.1-18.8-3.1H437.1z M461.2,563h-24.1v36.7
		H462c15.7,0,23.5-6.2,23.5-18.6c0-6.3-2-10.9-6.1-13.8C475.4,564.5,469.3,563,461.2,563z"/>
	<path class="st0" d="M587.1,579.2h-41.7c0.1,5.3,1,10,2.9,14.1c1.9,4.1,4.4,7.1,7.6,9.2c3.1,2.1,6.6,3.1,10.4,3.1
		c2.5,0,4.9-0.3,7-1c2.1-0.7,4.2-1.7,6.1-3.1c2-1.4,3.8-2.9,5.5-4.5c1.7-1.6,3.8-3.8,6.5-6.5c1.1-1,2.7-1.5,4.7-1.5
		c2.2,0,4,0.7,5.3,2c1.4,1.3,2,3.2,2,5.6c0,2.1-0.8,4.6-2.3,7.4c-1.5,2.8-3.8,5.5-6.8,8.1c-3,2.6-6.9,4.8-11.5,6.5S573,621,567,621
		c-13.7,0-24.3-4.3-31.9-12.9c-7.6-8.6-11.4-20.2-11.4-34.9c0-6.9,0.9-13.3,2.8-19.3c1.9-5.9,4.6-11,8.2-15.2
		c3.6-4.2,8-7.5,13.3-9.7c5.3-2.3,11.1-3.4,17.5-3.4c8.3,0,15.5,1.9,21.4,5.8c6,3.9,10.4,8.8,13.4,15c3,6.1,4.5,12.3,4.5,18.7
		c0,5.9-1.5,9.7-4.6,11.4C597,578.3,592.7,579.2,587.1,579.2z M545.4,565.9h38.7c-0.5-8-2.5-14-5.9-18c-3.4-4-7.9-6-13.5-6
		c-5.3,0-9.7,2-13.1,6C548.2,552,546.1,558,545.4,565.9z"/>
	<path class="st0" d="M676.5,607.8c-5.2,4.4-10.1,7.7-15,9.9c-4.8,2.2-10.2,3.3-16.2,3.3c-5.5,0-10.3-1.2-14.4-3.6s-7.3-5.6-9.6-9.6
		c-2.2-4.1-3.4-8.5-3.4-13.2c0-6.4,1.8-11.9,5.5-16.4c3.7-4.5,8.8-7.5,15.2-9.1c1.4-0.3,4.7-1.1,10.1-2.3c5.4-1.2,10-2.3,13.8-3.3
		c3.8-1,8-2.2,12.5-3.6c-0.3-6.2-1.4-10.7-3.4-13.6c-2-2.9-6.2-4.3-12.5-4.3c-5.4,0-9.5,0.8-12.2,2.5c-2.7,1.7-5.1,4.1-7,7.5
		c-2,3.3-3.3,5.5-4.1,6.6c-0.8,1.1-2.5,1.6-5.2,1.6c-2.4,0-4.5-0.8-6.2-2.5c-1.7-1.7-2.6-3.8-2.6-6.5c0-4.1,1.3-8.1,4-12
		c2.7-3.9,6.8-7.1,12.4-9.6c5.6-2.5,12.6-3.8,21-3.8c9.4,0,16.7,1.2,22.1,3.6c5.4,2.4,9.1,6.3,11.4,11.5c2.2,5.3,3.3,12.2,3.3,20.9
		c0,5.5,0,10.1,0,14c0,3.8-0.1,8.1-0.1,12.8c0,4.4,0.7,9,2,13.8c1.3,4.8,2,7.8,2,9.2c0,2.4-1,4.6-3.1,6.6c-2.1,2-4.4,3-7,3
		c-2.2,0-4.3-1.1-6.5-3.4C681.2,615.4,678.9,612.1,676.5,607.8z M675.1,573.9c-3.1,1.3-7.7,2.6-13.6,4c-6,1.4-10.1,2.4-12.4,3.1
		c-2.3,0.7-4.5,1.9-6.6,3.9c-2.1,1.9-3.1,4.6-3.1,8c0,3.5,1.2,6.6,3.7,9c2.4,2.5,5.6,3.7,9.6,3.7c4.2,0,8.1-1,11.7-3
		c3.6-2,6.2-4.6,7.8-7.8c1.9-3.5,2.9-9.4,2.9-17.5V573.9z"/>
	<path class="st0" d="M714.9,527.9h2.3v-14.1c0-3.8,0.1-6.7,0.3-8.9c0.2-2.1,0.7-4,1.5-5.5c0.8-1.6,2-2.9,3.6-3.9
		c1.6-1,3.3-1.5,5.2-1.5c2.7,0,5.2,1.1,7.3,3.3c1.5,1.5,2.4,3.3,2.8,5.4c0.4,2.1,0.6,5.2,0.6,9.1v15.9h7.8c3,0,5.3,0.8,6.9,2.4
		c1.6,1.6,2.4,3.6,2.4,6c0,3.1-1.1,5.3-3.4,6.6c-2.3,1.3-5.5,1.9-9.7,1.9h-4v43c0,3.7,0.1,6.5,0.4,8.4c0.2,2,0.9,3.6,1.9,4.8
		c1,1.2,2.7,1.8,5,1.8c1.2,0,2.9-0.2,5.1-0.7c2.1-0.5,3.8-0.7,5-0.7c1.7,0,3.3,0.8,4.6,2.3c1.4,1.5,2.1,3.4,2.1,5.6
		c0,3.8-1.9,6.7-5.6,8.7c-3.7,2-9.1,3-16.2,3c-6.7,0-11.7-1.2-15.2-3.7c-3.4-2.5-5.7-5.9-6.8-10.2c-1.1-4.3-1.6-10.1-1.6-17.4v-44.9
		h-2.8c-3.1,0-5.4-0.8-7-2.4c-1.6-1.6-2.4-3.6-2.4-6.1c0-2.5,0.8-4.5,2.5-6C709.2,528.7,711.6,527.9,714.9,527.9z"/>
	<path class="st0" d="M839,590.4c0,6.5-1.4,12-4.3,16.6c-2.9,4.6-7.1,8.1-12.7,10.5c-5.6,2.4-12.4,3.6-20.4,3.6
		c-7.7,0-14.2-1.3-19.7-3.9c-5.5-2.6-9.5-5.8-12.1-9.6c-2.6-3.9-3.9-7.7-3.9-11.6c0-2.6,0.8-4.8,2.5-6.6c1.7-1.8,3.8-2.7,6.3-2.7
		c2.2,0,4,0.6,5.2,1.8c1.2,1.2,2.3,2.9,3.4,5.1c2.2,4.2,4.8,7.3,7.8,9.3c3,2.1,7.2,3.1,12.5,3.1c4.3,0,7.8-1,10.5-3.1
		c2.7-2.1,4.1-4.5,4.1-7.2c0-4.1-1.4-7.1-4.3-9c-2.8-1.9-7.5-3.7-14-5.4c-7.3-2-13.3-4.1-17.9-6.3c-4.6-2.2-8.3-5.1-11.1-8.7
		c-2.8-3.6-4.1-8-4.1-13.3c0-4.7,1.3-9.1,3.8-13.3c2.5-4.2,6.3-7.5,11.3-10c5-2.5,11-3.7,18-3.7c5.5,0,10.5,0.6,14.9,1.9
		c4.4,1.3,8.1,2.9,11,5.1c2.9,2.1,5.2,4.5,6.7,7c1.5,2.6,2.3,5.1,2.3,7.5c0,2.7-0.8,4.9-2.5,6.6s-4,2.6-7,2.6c-2.2,0-4-0.7-5.6-2.1
		c-1.5-1.4-3.3-3.4-5.3-6.2c-1.6-2.3-3.5-4.1-5.7-5.5c-2.2-1.4-5.2-2.1-8.9-2.1c-3.9,0-7.1,0.9-9.6,2.7c-2.6,1.8-3.8,4-3.8,6.7
		c0,2.5,0.9,4.5,2.8,6c1.9,1.6,4.4,2.9,7.6,3.9c3.2,1,7.5,2.3,13.1,3.8c6.6,1.8,12,3.9,16.2,6.3c4.2,2.5,7.4,5.4,9.5,8.7
		C837.9,582.3,839,586.1,839,590.4z"/>
</g>
<g>
	<path class="st1" d="M-384,478.1c-11,0-20,9-20,20.1v60.2c0,11.1,9,20.1,20,20.1s20-9,20-20.1v-60.2
		C-364,487.1-373,478.1-384,478.1z"/>
	<path class="st1" d="M-107,478.1c-11,0-20,9-20,20.1v60.2c0,11.1,9,20.1,20,20.1s20-9,20-20.1v-60.2C-87,487.1-96,478.1-107,478.1z
		"/>
	<path class="st1" d="M-314,439c-11,0-20,9-20,20.1v169.6c0,11.1,9,20.1,20,20.1s20-9,20-20.1V459.1C-294,448-303,439-314,439z"/>
	<path class="st1" d="M-177,439c-11,0-20,9-20,20.1v169.6c0,11.1,9,20.1,20,20.1s20-9,20-20.1V459.1C-157,448-166,439-177,439z"/>
	<path class="st1" d="M-247,470.1c-11,0-20,9-20,20.1v207.7c0,11.1,9,20.1,20,20.1s20-9,20-20.1V490.2
		C-227,479.1-236,470.1-247,470.1z"/>
</g>
<g>
	<path class="st2" d="M43,52.1c-11,0-20,9-20,20.1v60.2c0,11.1,9,20.1,20,20.1s20-9,20-20.1V72.2C63,61.1,54,52.1,43,52.1z"/>
	<path class="st2" d="M320,52.1c-11,0-20,9-20,20.1v60.2c0,11.1,9,20.1,20,20.1s20-9,20-20.1V72.2C340,61.1,331,52.1,320,52.1z"/>
	<path class="st2" d="M113,13c-11,0-20,9-20,20.1v169.6c0,11.1,9,20.1,20,20.1s20-9,20-20.1V33.1C133,22,124,13,113,13z"/>
	<path class="st2" d="M250,13c-11,0-20,9-20,20.1v169.6c0,11.1,9,20.1,20,20.1s20-9,20-20.1V33.1C270,22,261,13,250,13z"/>
	<path class="st2" d="M180,44.1c-11,0-20,9-20,20.1v207.7c0,11.1,9,20.1,20,20.1s20-9,20-20.1V64.2C200,53.1,191,44.1,180,44.1z"/>
</g>
</svg>
