<?xml version="1.0"?>
<svg xmlns="http://www.w3.org/2000/svg" xmlns:xlink="http://www.w3.org/1999/xlink" xmlns:svgjs="http://svgjs.com/svgjs" version="1.1" width="512" height="512" x="0" y="0" viewBox="0 0 512.03 512.03" style="enable-background:new 0 0 512 512" xml:space="preserve" class=""><g><g xmlns="http://www.w3.org/2000/svg"><path d="m457.447 400.807-39.775-39.776 27.603-27.602-199.946-228.32c.041-27.499-10.737-54.096-30.1-73.794-40.377-41.08-106.807-41.84-148.08-1.697-20.316 19.759-31.613 46.237-31.811 74.556-.197 28.325 10.724 54.953 30.751 74.981 19.74 19.74 46.503 30.748 74.272 30.747h.176l228.319 199.946 27.603-27.602 39.775 39.777c12.246 12.246 11.966 27.818 7.621 38.309-4.346 10.491-15.16 21.701-32.479 21.701-5.736 0-11.445-1.424-16.51-4.118l-80.286-42.709c-74.017-39.375-162.39-39.368-236.4.018l-34.893 18.568 14.094 26.483 34.893-18.568c65.187-34.689 143.024-34.696 208.217-.016l80.286 42.709c9.387 4.994 19.968 7.633 30.6 7.633 26.854 0 49.919-15.412 60.194-40.221 10.276-24.811 4.864-52.018-14.124-71.005zm-188.405-223.082-55.89 55.89-45.238-39.616 61.511-61.511zm-53.743-73.536-75.683 75.683c-14.514-.145-28.619-4.49-40.621-12.413l103.888-103.887c7.919 12 12.27 26.109 12.416 40.617zm-149.963.192c.141-20.227 8.212-39.141 22.728-53.259 25.636-24.934 64.855-27.758 93.616-8.774l-103.93 103.931c-8.179-12.311-12.519-26.764-12.414-41.898zm302.16 264.397-131.725-115.355 53.079-53.079 115.356 131.726z" fill="#dadada" data-original="#000000" style=""/></g></g></svg>
