<?xml version="1.0"?>
<svg xmlns="http://www.w3.org/2000/svg" xmlns:xlink="http://www.w3.org/1999/xlink" xmlns:svgjs="http://svgjs.com/svgjs" version="1.1" width="512" height="512" x="0" y="0" viewBox="0 0 448.138 448.138" style="enable-background:new 0 0 512 512" xml:space="preserve" class=""><g><path xmlns="http://www.w3.org/2000/svg" d="m436.768 151.845c-13.152-26.976-35.744-42.08-57.6-56.704-16.288-10.912-31.648-21.216-42.528-35.968l-2.016-2.72c-6.4-8.608-13.696-18.368-14.816-26.56-1.12-8.288-7.648-14.048-16.928-13.792-8.384.576-14.88 7.552-14.88 15.968v285.12c-13.408-8.128-29.92-13.12-48-13.12-44.096 0-80 28.704-80 64s35.904 64 80 64c44.128 0 80-28.704 80-64v-186.496c24.032 9.184 63.36 32.576 74.176 87.2-2.016 2.976-3.936 6.208-6.176 8.736-5.856 6.624-5.184 16.736 1.44 22.56 6.592 5.888 16.704 5.184 22.56-1.44 20.032-22.752 33.824-58.784 35.968-94.016 1.056-17.376-2.816-35.616-11.2-52.768z" fill="#dadada" data-original="#000000" style="" class=""/><path xmlns="http://www.w3.org/2000/svg" d="m16 48.069h192c8.832 0 16-7.168 16-16s-7.168-16-16-16h-192c-8.832 0-16 7.168-16 16s7.168 16 16 16z" fill="#dadada" data-original="#000000" style="" class=""/><path xmlns="http://www.w3.org/2000/svg" d="m16 144.069h192c8.832 0 16-7.168 16-16s-7.168-16-16-16h-192c-8.832 0-16 7.168-16 16s7.168 16 16 16z" fill="#dadada" data-original="#000000" style="" class=""/><path xmlns="http://www.w3.org/2000/svg" d="m112 208.069h-96c-8.832 0-16 7.168-16 16s7.168 16 16 16h96c8.832 0 16-7.168 16-16s-7.168-16-16-16z" fill="#dadada" data-original="#000000" style="" class=""/><path xmlns="http://www.w3.org/2000/svg" d="m112 304.069h-96c-8.832 0-16 7.168-16 16s7.168 16 16 16h96c8.832 0 16-7.168 16-16s-7.168-16-16-16z" fill="#dadada" data-original="#000000" style="" class=""/><g xmlns="http://www.w3.org/2000/svg"/><g xmlns="http://www.w3.org/2000/svg"/><g xmlns="http://www.w3.org/2000/svg"/><g xmlns="http://www.w3.org/2000/svg"/><g xmlns="http://www.w3.org/2000/svg"/><g xmlns="http://www.w3.org/2000/svg"/><g xmlns="http://www.w3.org/2000/svg"/><g xmlns="http://www.w3.org/2000/svg"/><g xmlns="http://www.w3.org/2000/svg"/><g xmlns="http://www.w3.org/2000/svg"/><g xmlns="http://www.w3.org/2000/svg"/><g xmlns="http://www.w3.org/2000/svg"/><g xmlns="http://www.w3.org/2000/svg"/><g xmlns="http://www.w3.org/2000/svg"/><g xmlns="http://www.w3.org/2000/svg"/></g></svg>
